<svg id="SvgjsSvg1286" width="1023.5999908447266" height="740" xmlns="http://www.w3.org/2000/svg" version="1.1" xmlns:xlink="http://www.w3.org/1999/xlink" xmlns:svgjs="http://svgjs.com/svgjs"><defs id="SvgjsDefs1287"><marker id="SvgjsMarker1328" markerWidth="16" markerHeight="12" refX="16" refY="6" viewBox="0 0 16 12" orient="auto" markerUnits="userSpaceOnUse"><path id="SvgjsPath1329" d="M0,2 L14,6 L0,11 L0,2" fill="#3399ff" stroke="#3399ff" stroke-width="2"></path></marker><marker id="SvgjsMarker1344" markerWidth="16" markerHeight="12" refX="16" refY="6" viewBox="0 0 16 12" orient="auto" markerUnits="userSpaceOnUse"><path id="SvgjsPath1345" d="M0,2 L14,6 L0,11 L0,2" fill="#00ff80" stroke="#00ff80" stroke-width="2"></path></marker><marker id="SvgjsMarker1348" markerWidth="16" markerHeight="12" refX="16" refY="6" viewBox="0 0 16 12" orient="auto" markerUnits="userSpaceOnUse"><path id="SvgjsPath1349" d="M0,2 L14,6 L0,11 L0,2" fill="#00ff80" stroke="#00ff80" stroke-width="2"></path></marker><marker id="SvgjsMarker1364" markerWidth="16" markerHeight="12" refX="16" refY="6" viewBox="0 0 16 12" orient="auto" markerUnits="userSpaceOnUse"><path id="SvgjsPath1365" d="M0,2 L14,6 L0,11 L0,2" fill="#3399ff" stroke="#3399ff" stroke-width="2"></path></marker><marker id="SvgjsMarker1374" markerWidth="16" markerHeight="12" refX="16" refY="6" viewBox="0 0 16 12" orient="auto" markerUnits="userSpaceOnUse"><path id="SvgjsPath1375" d="M0,2 L14,6 L0,11 L0,2" fill="#ff66b3" stroke="#ff66b3" stroke-width="2"></path></marker><marker id="SvgjsMarker1400" markerWidth="16" markerHeight="12" refX="16" refY="6" viewBox="0 0 16 12" orient="auto" markerUnits="userSpaceOnUse"><path id="SvgjsPath1401" d="M0,2 L14,6 L0,11 L0,2" fill="#3399ff" stroke="#3399ff" stroke-width="2"></path></marker><marker id="SvgjsMarker1416" markerWidth="16" markerHeight="12" refX="16" refY="6" viewBox="0 0 16 12" orient="auto" markerUnits="userSpaceOnUse"><path id="SvgjsPath1417" d="M0,2 L14,6 L0,11 L0,2" fill="#66b2ff" stroke="#66b2ff" stroke-width="2"></path></marker><marker id="SvgjsMarker1426" markerWidth="16" markerHeight="12" refX="16" refY="6" viewBox="0 0 16 12" orient="auto" markerUnits="userSpaceOnUse"><path id="SvgjsPath1427" d="M0,2 L14,6 L0,11 L0,2" fill="#66b2ff" stroke="#66b2ff" stroke-width="2"></path></marker><marker id="SvgjsMarker1448" markerWidth="16" markerHeight="12" refX="16" refY="6" viewBox="0 0 16 12" orient="auto" markerUnits="userSpaceOnUse"><path id="SvgjsPath1449" d="M0,2 L14,6 L0,11 L0,2" fill="#ff9933" stroke="#ff9933" stroke-width="2"></path></marker><marker id="SvgjsMarker1468" markerWidth="16" markerHeight="12" refX="16" refY="6" viewBox="0 0 16 12" orient="auto" markerUnits="userSpaceOnUse"><path id="SvgjsPath1469" d="M0,2 L14,6 L0,11 L0,2" fill="#ff9933" stroke="#ff9933" stroke-width="2"></path></marker><marker id="SvgjsMarker1490" markerWidth="16" markerHeight="12" refX="16" refY="6" viewBox="0 0 16 12" orient="auto" markerUnits="userSpaceOnUse"><path id="SvgjsPath1491" d="M0,2 L14,6 L0,11 L0,2" fill="#ff66b3" stroke="#ff66b3" stroke-width="2"></path></marker><marker id="SvgjsMarker1494" markerWidth="16" markerHeight="12" refX="16" refY="6" viewBox="0 0 16 12" orient="auto" markerUnits="userSpaceOnUse"><path id="SvgjsPath1495" d="M0,2 L14,6 L0,11 L0,2" fill="#ff66b3" stroke="#ff66b3" stroke-width="2"></path></marker><marker id="SvgjsMarker1510" markerWidth="16" markerHeight="12" refX="16" refY="6" viewBox="0 0 16 12" orient="auto" markerUnits="userSpaceOnUse"><path id="SvgjsPath1511" d="M0,2 L14,6 L0,11 L0,2" fill="#6600cc" stroke="#6600cc" stroke-width="2"></path></marker><marker id="SvgjsMarker1526" markerWidth="16" markerHeight="12" refX="16" refY="6" viewBox="0 0 16 12" orient="auto" markerUnits="userSpaceOnUse"><path id="SvgjsPath1527" d="M0,2 L14,6 L0,11 L0,2" fill="#ff66b3" stroke="#ff66b3" stroke-width="2"></path></marker><marker id="SvgjsMarker1530" markerWidth="16" markerHeight="12" refX="16" refY="6" viewBox="0 0 16 12" orient="auto" markerUnits="userSpaceOnUse"><path id="SvgjsPath1531" d="M0,2 L14,6 L0,11 L0,2" fill="#ff66b3" stroke="#ff66b3" stroke-width="2"></path></marker></defs><g id="SvgjsG1288" transform="translate(873,337)"><path id="SvgjsPath1289" d="M 125 0L 125 60C 125 140 0 140 0 60Q 0 0 62.5 0L 62.5 0L 125 0Z" stroke="#323232" stroke-width="2" fill-opacity="1" fill="#ffffff"></path><g id="SvgjsG1290"><text id="SvgjsText1291" font-family="微软雅黑" text-anchor="middle" font-size="13px" width="104" fill="#323232" font-weight="400" align="middle" anchor="middle" family="微软雅黑" size="13px" weight="400" font-style="" y="10.05" transform="rotate(0)"><tspan id="SvgjsTspan1292" dy="16" x="62.5"><tspan id="SvgjsTspan1293" style="text-decoration:;">待连接的sid没有</tspan></tspan><tspan id="SvgjsTspan1294" dy="16" x="62.5"><tspan id="SvgjsTspan1295" style="text-decoration:;">过期, 说明已有其</tspan></tspan><tspan id="SvgjsTspan1296" dy="16" x="62.5"><tspan id="SvgjsTspan1297" style="text-decoration:;">它标签页也在等待</tspan></tspan><tspan id="SvgjsTspan1298" dy="16" x="62.5"><tspan id="SvgjsTspan1299" style="text-decoration:;">连接, 等待一个周</tspan></tspan><tspan id="SvgjsTspan1300" dy="16" x="62.5"><tspan id="SvgjsTspan1301" style="text-decoration:;">期后, 轮询是否连</tspan></tspan><tspan id="SvgjsTspan1302" dy="16" x="62.5"><tspan id="SvgjsTspan1303" style="text-decoration:;">接</tspan></tspan></text></g></g><g id="SvgjsG1304" transform="translate(731,25)"><path id="SvgjsPath1305" d="M 0 40C 0 -13.333333333333334 80 -13.333333333333334 80 40C 80 93.33333333333333 0 93.33333333333333 0 40Z" stroke="#171717" stroke-width="2" fill-opacity="1" fill="#ff6666"></path><g id="SvgjsG1306"><text id="SvgjsText1307" font-family="微软雅黑" text-anchor="middle" font-size="13px" width="52" fill="#ffffff" font-weight="400" align="middle" anchor="middle" family="微软雅黑" size="13px" weight="400" font-style="" y="22.05" transform="rotate(0)"><tspan id="SvgjsTspan1308" dy="16" x="40"><tspan id="SvgjsTspan1309" style="text-decoration:;">未读消息</tspan></tspan><tspan id="SvgjsTspan1310" dy="16" x="40"><tspan id="SvgjsTspan1311" style="text-decoration:;">数提醒</tspan></tspan></text></g></g><g id="SvgjsG1312" transform="translate(629,165)"><path id="SvgjsPath1313" d="M 0 0L 44 0L 44 24L 0 24Z" stroke="none" fill="none"></path><g id="SvgjsG1314"><text id="SvgjsText1315" font-family="微软雅黑" text-anchor="middle" font-size="13px" width="13" fill="#323232" font-weight="400" align="middle" anchor="middle" family="微软雅黑" size="13px" weight="400" font-style="" y="2.05" transform="rotate(0)"><tspan id="SvgjsTspan1316" dy="16" x="22"><tspan id="SvgjsTspan1317" style="text-decoration:;">是</tspan></tspan></text></g></g><g id="SvgjsG1318" transform="translate(731,151)"><path id="SvgjsPath1319" d="M 0 40C 0 -13.333333333333334 80 -13.333333333333334 80 40C 80 93.33333333333333 0 93.33333333333333 0 40Z" stroke="#323232" stroke-width="2" fill-opacity="1" fill="#ffffff"></path><g id="SvgjsG1320"><text id="SvgjsText1321" font-family="微软雅黑" text-anchor="middle" font-size="13px" width="52" fill="#323232" font-weight="400" align="middle" anchor="middle" family="微软雅黑" size="13px" weight="400" font-style="" y="22.05" transform="rotate(0)"><tspan id="SvgjsTspan1322" dy="16" x="40"><tspan id="SvgjsTspan1323" style="text-decoration:;">是否为登</tspan></tspan><tspan id="SvgjsTspan1324" dy="16" x="40"><tspan id="SvgjsTspan1325" style="text-decoration:;">录状态</tspan></tspan></text></g></g><g id="SvgjsG1326"><path id="SvgjsPath1327" d="M771 105L771 127L771 127L771 149" stroke="#3399ff" stroke-width="2" fill="none" marker-end="url(#SvgjsMarker1328)"></path></g><g id="SvgjsG1330" transform="translate(832,167)"><path id="SvgjsPath1331" d="M 0 0L 56 0L 56 20L 0 20Z" stroke="none" fill="none"></path><g id="SvgjsG1332"><text id="SvgjsText1333" font-family="微软雅黑" text-anchor="middle" font-size="13px" width="13" fill="#323232" font-weight="400" align="middle" anchor="middle" family="微软雅黑" size="13px" weight="400" font-style="" y="0.050000000000000044" transform="rotate(0)"><tspan id="SvgjsTspan1334" dy="16" x="28"><tspan id="SvgjsTspan1335" style="text-decoration:;">否</tspan></tspan></text></g></g><g id="SvgjsG1336" transform="translate(691,273)"><path id="SvgjsPath1337" d="M 0 0L 160 0L 160 30L 0 30Z" stroke="#323232" stroke-width="2" fill-opacity="1" fill="#ffffff"></path><g id="SvgjsG1338"><text id="SvgjsText1339" font-family="微软雅黑" text-anchor="middle" font-size="13px" width="52" fill="#323232" font-weight="400" align="middle" anchor="middle" family="微软雅黑" size="13px" weight="400" font-style="" y="5.05" transform="rotate(0)"><tspan id="SvgjsTspan1340" dy="16" x="80"><tspan id="SvgjsTspan1341" style="text-decoration:;">定时轮询</tspan></tspan></text></g></g><g id="SvgjsG1342"><path id="SvgjsPath1343" d="M811 189L908 189L908 288L851 288" stroke="#00ff80" stroke-width="2" fill="none" marker-end="url(#SvgjsMarker1344)"></path></g><g id="SvgjsG1346"><path id="SvgjsPath1347" d="M771 273L771 251L771 251L771 229" stroke="#00ff80" stroke-width="2" fill="none" marker-end="url(#SvgjsMarker1348)"></path></g><g id="SvgjsG1350" transform="translate(549,298)"><path id="SvgjsPath1351" d="M 0 40C 0 -13.333333333333334 80 -13.333333333333334 80 40C 80 93.33333333333333 0 93.33333333333333 0 40Z" stroke="#323232" stroke-width="2" fill-opacity="1" fill="#ffffff"></path><g id="SvgjsG1352"><text id="SvgjsText1353" font-family="微软雅黑" text-anchor="middle" font-size="13px" width="52" fill="#323232" font-weight="400" align="middle" anchor="middle" family="微软雅黑" size="13px" weight="400" font-style="" y="6.05" transform="rotate(0)"><tspan id="SvgjsTspan1354" dy="16" x="40"><tspan id="SvgjsTspan1355" style="text-decoration:;">当前浏览</tspan></tspan><tspan id="SvgjsTspan1356" dy="16" x="40"><tspan id="SvgjsTspan1357" style="text-decoration:;">器是否有</tspan></tspan><tspan id="SvgjsTspan1358" dy="16" x="40"><tspan id="SvgjsTspan1359" style="text-decoration:;">标签页已</tspan></tspan><tspan id="SvgjsTspan1360" dy="16" x="40"><tspan id="SvgjsTspan1361" style="text-decoration:;">连接SDK</tspan></tspan></text></g></g><g id="SvgjsG1362"><path id="SvgjsPath1363" d="M731 189L589 189L589 298" stroke="#3399ff" stroke-width="2" fill="none" marker-end="url(#SvgjsMarker1364)"></path></g><g id="SvgjsG1366" transform="translate(509,441)"><path id="SvgjsPath1367" d="M 0 0L 160 0L 160 30L 0 30Z" stroke="#323232" stroke-width="2" fill-opacity="1" fill="#ffffff"></path><g id="SvgjsG1368"><text id="SvgjsText1369" font-family="微软雅黑" text-anchor="middle" font-size="13px" width="78" fill="#323232" font-weight="400" align="middle" anchor="middle" family="微软雅黑" size="13px" weight="400" font-style="" y="5.05" transform="rotate(0)"><tspan id="SvgjsTspan1370" dy="16" x="80"><tspan id="SvgjsTspan1371" style="text-decoration:;">准备连接SDK</tspan></tspan></text></g></g><g id="SvgjsG1372"><path id="SvgjsPath1373" d="M589 378L589 409.5L589 409.5L589 441" stroke="#ff66b3" stroke-width="2" fill="none" marker-end="url(#SvgjsMarker1374)"></path></g><g id="SvgjsG1376" transform="translate(573,392)"><path id="SvgjsPath1377" d="M 0 0L 56 0L 56 20L 0 20Z" stroke="none" fill="none"></path><g id="SvgjsG1378"><text id="SvgjsText1379" font-family="微软雅黑" text-anchor="middle" font-size="13px" width="13" fill="#323232" font-weight="400" align="middle" anchor="middle" family="微软雅黑" size="13px" weight="400" font-style="" y="0.050000000000000044" transform="rotate(0)"><tspan id="SvgjsTspan1380" dy="16" x="28"><tspan id="SvgjsTspan1381" style="text-decoration:;">否</tspan></tspan></text></g></g><g id="SvgjsG1382" transform="translate(483,313)"><path id="SvgjsPath1383" d="M 0 0L 53 0L 53 24L 0 24Z" stroke="none" fill="none"></path><g id="SvgjsG1384"><text id="SvgjsText1385" font-family="微软雅黑" text-anchor="middle" font-size="13px" width="14" fill="#323232" font-weight="400" align="middle" anchor="middle" family="微软雅黑" size="13px" weight="400" font-style="" y="2.05" transform="rotate(0)"><tspan id="SvgjsTspan1386" dy="16" x="26.5"><tspan id="SvgjsTspan1387" style="text-decoration:;">是</tspan></tspan></text></g></g><g id="SvgjsG1388" transform="translate(369,298)"><path id="SvgjsPath1389" d="M 0 40C 0 -13.333333333333334 80 -13.333333333333334 80 40C 80 93.33333333333333 0 93.33333333333333 0 40Z" stroke="#323232" stroke-width="2" fill-opacity="1" fill="#ffffff"></path><g id="SvgjsG1390"><text id="SvgjsText1391" font-family="微软雅黑" text-anchor="middle" font-size="13px" width="54" fill="#323232" font-weight="400" align="middle" anchor="middle" family="微软雅黑" size="13px" weight="400" font-style="" y="14.05" transform="rotate(0)"><tspan id="SvgjsTspan1392" dy="16" x="40"><tspan id="SvgjsTspan1393" style="text-decoration:;">cookie中</tspan></tspan><tspan id="SvgjsTspan1394" dy="16" x="40"><tspan id="SvgjsTspan1395" style="text-decoration:;">是否有账</tspan></tspan><tspan id="SvgjsTspan1396" dy="16" x="40"><tspan id="SvgjsTspan1397" style="text-decoration:;">号信息</tspan></tspan></text></g></g><g id="SvgjsG1398"><path id="SvgjsPath1399" d="M549 338L499 338L499 338L449 338" stroke="#3399ff" stroke-width="2" fill="none" marker-end="url(#SvgjsMarker1400)"></path></g><g id="SvgjsG1402" transform="translate(366,263)"><path id="SvgjsPath1403" d="M 0 0L 56 0L 56 20L 0 20Z" stroke="none" fill="none"></path><g id="SvgjsG1404"><text id="SvgjsText1405" font-family="微软雅黑" text-anchor="middle" font-size="13px" width="13" fill="#323232" font-weight="400" align="middle" anchor="middle" family="微软雅黑" size="13px" weight="400" font-style="" y="0.050000000000000044" transform="rotate(0)"><tspan id="SvgjsTspan1406" dy="16" x="28"><tspan id="SvgjsTspan1407" style="text-decoration:;">否</tspan></tspan></text></g></g><g id="SvgjsG1408" transform="translate(116,323)"><path id="SvgjsPath1409" d="M 0 0L 160 0L 160 30L 0 30Z" stroke="#323232" stroke-width="2" fill-opacity="1" fill="#ffffff"></path><g id="SvgjsG1410"><text id="SvgjsText1411" font-family="微软雅黑" text-anchor="middle" font-size="13px" width="104" fill="#323232" font-weight="400" align="middle" anchor="middle" family="微软雅黑" size="13px" weight="400" font-style="" y="5.05" transform="rotate(0)"><tspan id="SvgjsTspan1412" dy="16" x="80"><tspan id="SvgjsTspan1413" style="text-decoration:;">从本地读取未读数</tspan></tspan></text></g></g><g id="SvgjsG1414"><path id="SvgjsPath1415" d="M369 338L322.5 338L322.5 338L276 338" stroke="#66b2ff" stroke-width="2" fill="none" marker-end="url(#SvgjsMarker1416)"></path></g><g id="SvgjsG1418" transform="translate(302.5,313)"><path id="SvgjsPath1419" d="M 0 0L 53 0L 53 24L 0 24Z" stroke="none" fill="none"></path><g id="SvgjsG1420"><text id="SvgjsText1421" font-family="微软雅黑" text-anchor="middle" font-size="13px" width="14" fill="#323232" font-weight="400" align="middle" anchor="middle" family="微软雅黑" size="13px" weight="400" font-style="" y="2.05" transform="rotate(0)"><tspan id="SvgjsTspan1422" dy="16" x="26.5"><tspan id="SvgjsTspan1423" style="text-decoration:;">是</tspan></tspan></text></g></g><g id="SvgjsG1424"><path id="SvgjsPath1425" d="M196 353L196 424.5L196 424.5L196 496" stroke="#66b2ff" stroke-width="2" fill="none" marker-end="url(#SvgjsMarker1426)"></path></g><g id="SvgjsG1428" transform="translate(156,496)"><path id="SvgjsPath1429" d="M 0 40C 0 -13.333333333333334 80 -13.333333333333334 80 40C 80 93.33333333333333 0 93.33333333333333 0 40Z" stroke="#323232" stroke-width="2" fill-opacity="1" fill="#ff6666"></path><g id="SvgjsG1430"><text id="SvgjsText1431" font-family="微软雅黑" text-anchor="middle" font-size="13px" width="52" fill="#ffffff" font-weight="400" align="middle" anchor="middle" family="微软雅黑" size="13px" weight="400" font-style="" y="22.05" transform="rotate(0)"><tspan id="SvgjsTspan1432" dy="16" x="40"><tspan id="SvgjsTspan1433" style="text-decoration:;">显示未读</tspan></tspan><tspan id="SvgjsTspan1434" dy="16" x="40"><tspan id="SvgjsTspan1435" style="text-decoration:;">数</tspan></tspan></text></g></g><g id="SvgjsG1436" transform="translate(549,565.5)"><path id="SvgjsPath1437" d="M 0 40C 0 -13.333333333333334 80 -13.333333333333334 80 40C 80 93.33333333333333 0 93.33333333333333 0 40Z" stroke="#323232" stroke-width="2" fill-opacity="1" fill="#ffffff"></path><g id="SvgjsG1438"><text id="SvgjsText1439" font-family="微软雅黑" text-anchor="middle" font-size="13px" width="52" fill="#323232" font-weight="400" align="middle" anchor="middle" family="微软雅黑" size="13px" weight="400" font-style="" y="14.05" transform="rotate(0)"><tspan id="SvgjsTspan1440" dy="16" x="40"><tspan id="SvgjsTspan1441" style="text-decoration:;">写入sid,</tspan></tspan><tspan id="SvgjsTspan1442" dy="16" x="40"><tspan id="SvgjsTspan1443" style="text-decoration:;">等待一个</tspan></tspan><tspan id="SvgjsTspan1444" dy="16" x="40"><tspan id="SvgjsTspan1445" style="text-decoration:;">周期</tspan></tspan></text></g></g><g id="SvgjsG1446"><path id="SvgjsPath1447" d="M236 536L409 536L409 378" stroke="#ff9933" stroke-width="2" fill="none" marker-end="url(#SvgjsMarker1448)"></path></g><g id="SvgjsG1450" transform="translate(267.5,510.5)"><path id="SvgjsPath1451" d="M 0 0L 101.5 0L 101.5 23L 0 23Z" stroke="none" fill="none"></path><g id="SvgjsG1452"><text id="SvgjsText1453" font-family="微软雅黑" text-anchor="middle" font-size="13px" width="78" fill="#323232" font-weight="400" align="middle" anchor="middle" family="微软雅黑" size="13px" weight="400" font-style="" y="1.55" transform="rotate(0)"><tspan id="SvgjsTspan1454" dy="16" x="51"><tspan id="SvgjsTspan1455" style="text-decoration:;">轮询账号信息</tspan></tspan></text></g></g><g id="SvgjsG1456" transform="translate(369,149)"><path id="SvgjsPath1457" d="M 0 40C 0 -13.333333333333334 80 -13.333333333333334 80 40C 80 93.33333333333333 0 93.33333333333333 0 40Z" stroke="#323232" stroke-width="2" fill-opacity="1" fill="#ffffff"></path><g id="SvgjsG1458"><text id="SvgjsText1459" font-family="微软雅黑" text-anchor="middle" font-size="13px" width="52" fill="#323232" font-weight="400" align="middle" anchor="middle" family="微软雅黑" size="13px" weight="400" font-style="" y="14.05" transform="rotate(0)"><tspan id="SvgjsTspan1460" dy="16" x="40"><tspan id="SvgjsTspan1461" style="text-decoration:;">登录状态</tspan></tspan><tspan id="SvgjsTspan1462" dy="16" x="40"><tspan id="SvgjsTspan1463" style="text-decoration:;">失效, </tspan></tspan><tspan id="SvgjsTspan1464" dy="16" x="40"><tspan id="SvgjsTspan1465" style="text-decoration:;">刷新页面</tspan></tspan></text></g></g><g id="SvgjsG1466"><path id="SvgjsPath1467" d="M409 298L409 263.5L409 263.5L409 229" stroke="#ff9933" stroke-width="2" fill="none" marker-end="url(#SvgjsMarker1468)"></path></g><g id="SvgjsG1470" transform="translate(624,484.5)"><path id="SvgjsPath1471" d="M 0 44.25C 0 -14.75 140 -14.75 140 44.25Q 137.2 86.73 70 88.5Q 46.666666666666664 88.5 23.333333333333332 79.65L 0 88.5L 16.380000000000003 75.8445Q 0 61.949999999999996 0 44.25" stroke="#323232" stroke-width="2" fill-opacity="1" fill="#ffffff"></path><g id="SvgjsG1472"><text id="SvgjsText1473" font-family="微软雅黑" text-anchor="middle" font-size="13px" width="117" fill="#323232" font-weight="400" align="middle" anchor="middle" family="微软雅黑" size="13px" weight="400" font-style="" y="18.3" transform="rotate(0)"><tspan id="SvgjsTspan1474" dy="16" x="70"><tspan id="SvgjsTspan1475" style="text-decoration:;">可能有多个准备连接</tspan></tspan><tspan id="SvgjsTspan1476" dy="16" x="70"><tspan id="SvgjsTspan1477" style="text-decoration:;">的标签页, 用于确定</tspan></tspan><tspan id="SvgjsTspan1478" dy="16" x="70"><tspan id="SvgjsTspan1479" style="text-decoration:;">最终哪个标签页去连</tspan></tspan></text></g></g><g id="SvgjsG1480" transform="translate(780,576)"><path id="SvgjsPath1481" d="M 0 0L 112 0L 112 59L 0 59Z" stroke="#323232" stroke-width="2" fill-opacity="1" fill="#ffffff"></path><g id="SvgjsG1482"><text id="SvgjsText1483" font-family="微软雅黑" text-anchor="middle" font-size="13px" width="78" fill="#323232" font-weight="400" align="middle" anchor="middle" family="微软雅黑" size="13px" weight="400" font-style="" y="11.55" transform="rotate(0)"><tspan id="SvgjsTspan1484" dy="16" x="56"><tspan id="SvgjsTspan1485" style="text-decoration:;">检查待连接的</tspan></tspan><tspan id="SvgjsTspan1486" dy="16" x="56"><tspan id="SvgjsTspan1487" style="text-decoration:;">sid是否过期</tspan></tspan></text></g></g><g id="SvgjsG1488"><path id="SvgjsPath1489" d="M669 456L836 456L836 576" stroke="#ff66b3" stroke-width="2" fill="none" marker-end="url(#SvgjsMarker1490)"></path></g><g id="SvgjsG1492"><path id="SvgjsPath1493" d="M780 605.5L704.5 605.5L704.5 605.5L629 605.5" stroke="#ff66b3" stroke-width="2" fill="none" marker-end="url(#SvgjsMarker1494)"></path></g><g id="SvgjsG1496" transform="translate(918,582)"><path id="SvgjsPath1497" d="M 0 0L 56 0L 56 20L 0 20Z" stroke="none" fill="none"></path><g id="SvgjsG1498"><text id="SvgjsText1499" font-family="微软雅黑" text-anchor="middle" font-size="13px" width="13" fill="#323232" font-weight="400" align="middle" anchor="middle" family="微软雅黑" size="13px" weight="400" font-style="" y="0.050000000000000044" transform="rotate(0)"><tspan id="SvgjsTspan1500" dy="16" x="28"><tspan id="SvgjsTspan1501" style="text-decoration:;">否</tspan></tspan></text></g></g><g id="SvgjsG1502" transform="translate(678,580)"><path id="SvgjsPath1503" d="M 0 0L 53 0L 53 24L 0 24Z" stroke="none" fill="none"></path><g id="SvgjsG1504"><text id="SvgjsText1505" font-family="微软雅黑" text-anchor="middle" font-size="13px" width="14" fill="#323232" font-weight="400" align="middle" anchor="middle" family="微软雅黑" size="13px" weight="400" font-style="" y="2.05" transform="rotate(0)"><tspan id="SvgjsTspan1506" dy="16" x="26.5"><tspan id="SvgjsTspan1507" style="text-decoration:;">是</tspan></tspan></text></g></g><g id="SvgjsG1508"><path id="SvgjsPath1509" d="M892 605.5L998 605.5L998 338L629 338" stroke="#6600cc" stroke-width="2" fill="none" marker-end="url(#SvgjsMarker1510)"></path></g><g id="SvgjsG1512" transform="translate(366,635)"><path id="SvgjsPath1513" d="M 0 40C 0 -13.333333333333334 80 -13.333333333333334 80 40C 80 93.33333333333333 0 93.33333333333333 0 40Z" stroke="#323232" stroke-width="2" fill-opacity="1" fill="#ffffff"></path><g id="SvgjsG1514"><text id="SvgjsText1515" font-family="微软雅黑" text-anchor="middle" font-size="13px" width="55" fill="#323232" font-weight="400" align="middle" anchor="middle" family="微软雅黑" size="13px" weight="400" font-style="" y="6.05" transform="rotate(0)"><tspan id="SvgjsTspan1516" dy="16" x="40"><tspan id="SvgjsTspan1517" style="text-decoration:;">获取云信</tspan></tspan><tspan id="SvgjsTspan1518" dy="16" x="40"><tspan id="SvgjsTspan1519" style="text-decoration:;">会话列表,</tspan></tspan><tspan id="SvgjsTspan1520" dy="16" x="40"><tspan id="SvgjsTspan1521" style="text-decoration:;">计算总未</tspan></tspan><tspan id="SvgjsTspan1522" dy="16" x="40"><tspan id="SvgjsTspan1523" style="text-decoration:;">读数</tspan></tspan></text></g></g><g id="SvgjsG1524"><path id="SvgjsPath1525" d="M589 645.5L589 675L446 675" stroke="#ff66b3" stroke-width="2" fill="none" marker-end="url(#SvgjsMarker1526)"></path></g><g id="SvgjsG1528"><path id="SvgjsPath1529" d="M366 675L196 675L196 576" stroke="#ff66b3" stroke-width="2" fill="none" marker-end="url(#SvgjsMarker1530)"></path></g><g id="SvgjsG1532" transform="translate(116,52)"><path id="SvgjsPath1533" d="M 0 0L 446 0L 446 53L 0 53Z" stroke="none" fill="none"></path><g id="SvgjsG1534"><text id="SvgjsText1535" font-family="微软雅黑" text-anchor="start" font-size="13px" width="422" fill="#323232" font-weight="400" align="middle" anchor="start" family="微软雅黑" size="13px" weight="400" font-style="" y="-31.45" transform="rotate(0)"><tspan id="SvgjsTspan1536" dy="16" x="0"><tspan id="SvgjsTspan1537" style="text-decoration:;">蓝 -&gt; 绿: 未登录, 轮询登录状态, 不显示未读数</tspan></tspan><tspan id="SvgjsTspan1538" dy="16" x="0"><tspan id="SvgjsTspan1539" style="text-decoration:;"> </tspan></tspan><tspan id="SvgjsTspan1540" dy="16" x="0"><tspan id="SvgjsTspan1541" style="text-decoration:;">蓝: 已登录, 已有其它标签页连接, 直接从本地读未读数</tspan></tspan><tspan id="SvgjsTspan1542" dy="16" x="0"><tspan id="SvgjsTspan1543" style="text-decoration:;"> </tspan></tspan><tspan id="SvgjsTspan1544" dy="16" x="0"><tspan id="SvgjsTspan1545" style="text-decoration:;">蓝 -&gt; 红: 已登录, 成功连接SDK, 从云信取未读数</tspan></tspan><tspan id="SvgjsTspan1546" dy="16" x="0"><tspan id="SvgjsTspan1547" style="text-decoration:;"> </tspan></tspan><tspan id="SvgjsTspan1548" dy="16" x="0"><tspan id="SvgjsTspan1549" style="text-decoration:;">蓝 -&gt; 红  -&gt; 紫  -&gt; 蓝: 已登录, 其它标签页成功连接SDK, 从本地读未读数</tspan></tspan></text></g></g><g id="SvgjsG1550" transform="translate(203.5,622)"><path id="SvgjsPath1551" d="M 0 0L 155 0L 155 41L 0 41Z" stroke="none" fill="none"></path><g id="SvgjsG1552"><text id="SvgjsText1553" font-family="微软雅黑" text-anchor="middle" font-size="13px" width="143" fill="#323232" font-weight="400" align="middle" anchor="middle" family="微软雅黑" size="13px" weight="400" font-style="" y="-5.45" transform="rotate(0)"><tspan id="SvgjsTspan1554" dy="16" x="77.5"><tspan id="SvgjsTspan1555" style="text-decoration:;">订阅会话未读数改变回调</tspan></tspan><tspan id="SvgjsTspan1556" dy="16" x="77.5"><tspan id="SvgjsTspan1557" style="text-decoration:;">onmsg, </tspan></tspan><tspan id="SvgjsTspan1558" dy="16" x="77.5"><tspan id="SvgjsTspan1559" style="text-decoration:;">onupdatesession</tspan></tspan></text></g></g><g id="SvgjsG1560" transform="translate(25,157)"><path id="SvgjsPath1561" d="M 0 0L 160 0L 160 40L 0 40Z" stroke="none" fill="none"></path><g id="SvgjsG1562"><text id="SvgjsText1563" font-family="微软雅黑" text-anchor="middle" font-size="13px" width="26" fill="#323232" font-weight="400" align="middle" anchor="middle" family="微软雅黑" size="13px" weight="400" font-style="" y="10.05" transform="rotate(0)"><tspan id="SvgjsTspan1564" dy="16" x="80"></tspan></text></g></g></svg>